<svg data-v-423bf9ae="" xmlns="http://www.w3.org/2000/svg" viewBox="0 0 534 90" class="iconLeftSlogan"><!----><!----><!----><g data-v-423bf9ae="" id="783bd20e-ceb2-4a41-b16e-c41c1ad6a710" fill="black" transform="matrix(4.240282799826114,0,0,4.240282799826114,170.308027618033,-26.07774010015264)"><path d="M3.08 11.21L6.87 11.21L6.87 12.75L3.08 12.75L3.08 14.30L3.08 14.30Q3.08 15.26 3.09 15.99L3.09 15.99L3.09 15.99Q3.10 16.71 3.18 17.09L3.18 17.09L1.03 17.09L1.03 17.09Q1.10 16.68 1.11 15.90L1.11 15.90L1.11 15.90Q1.13 15.13 1.13 14.12L1.13 14.12L1.13 9.16L1.13 9.16Q1.13 8.70 1.12 8.32L1.12 8.32L1.12 8.32Q1.11 7.93 1.09 7.62L1.09 7.62L1.09 7.62Q1.07 7.31 1.03 7.11L1.03 7.11L7.45 7.11L7.45 8.68L3.08 8.68L3.08 11.21ZM11.35 6.15L11.35 13.84L11.35 13.84Q11.35 14.17 11.36 14.62L11.36 14.62L11.36 14.62Q11.37 15.06 11.39 15.52L11.39 15.52L11.39 15.52Q11.40 15.98 11.43 16.39L11.43 16.39L11.43 16.39Q11.45 16.81 11.48 17.09L11.48 17.09L9.43 17.09L9.43 9.37L9.43 9.37Q9.43 8.37 9.40 7.56L9.40 7.56L9.40 7.56Q9.37 6.75 9.30 6.15L9.30 6.15L11.35 6.15ZM19.04 12.54L17.40 17.09L17.40 17.09Q17.04 18.08 16.68 18.71L16.68 18.71L16.68 18.71Q16.32 19.33 15.93 19.69L15.93 19.69L15.93 19.69Q15.55 20.04 15.13 20.17L15.13 20.17L15.13 20.17Q14.72 20.30 14.25 20.30L14.25 20.30L14.25 20.30Q13.78 20.30 13.33 20.15L13.33 20.15L13.33 20.15Q12.89 20.00 12.51 19.72L12.51 19.72L12.99 18.23L12.99 18.23Q13.10 18.32 13.24 18.41L13.24 18.41L13.24 18.41Q13.39 18.50 13.56 18.58L13.56 18.58L13.56 18.58Q13.73 18.65 13.90 18.70L13.90 18.70L13.90 18.70Q14.08 18.74 14.25 18.74L14.25 18.74L14.25 18.74Q14.40 18.74 14.56 18.69L14.56 18.69L14.56 18.69Q14.72 18.63 14.89 18.47L14.89 18.47L14.89 18.47Q15.05 18.31 15.23 18.01L15.23 18.01L15.23 18.01Q15.42 17.71 15.62 17.21L15.62 17.21L13.81 12.54L13.81 12.54Q13.62 12.07 13.37 11.49L13.37 11.49L13.37 11.49Q13.11 10.92 12.71 10.12L12.71 10.12L14.85 10.12L16.50 15.09L16.50 15.09Q16.58 14.76 16.69 14.37L16.69 14.37L16.69 14.37Q16.80 13.99 16.92 13.58L16.92 13.58L16.92 13.58Q17.04 13.17 17.15 12.75L17.15 12.75L17.15 12.75Q17.27 12.33 17.38 11.95L17.38 11.95L17.38 11.95Q17.63 11.05 17.89 10.12L17.89 10.12L20.03 10.12L20.03 10.12Q19.85 10.51 19.71 10.85L19.71 10.85L19.71 10.85Q19.56 11.19 19.44 11.49L19.44 11.49L19.44 11.49Q19.32 11.79 19.22 12.04L19.22 12.04L19.22 12.04Q19.12 12.30 19.04 12.54L19.04 12.54ZM20.41 7.11L28.44 7.11L28.44 8.82L28.44 8.82Q28.07 8.73 27.67 8.71L27.67 8.71L27.67 8.71Q27.28 8.68 26.86 8.68L26.86 8.68L25.38 8.68L25.38 14.27L25.38 14.27Q25.38 15.22 25.41 15.96L25.41 15.96L25.41 15.96Q25.43 16.70 25.52 17.09L25.52 17.09L23.30 17.09L23.30 17.09Q23.39 16.70 23.41 15.96L23.41 15.96L23.41 15.96Q23.43 15.22 23.43 14.27L23.43 14.27L23.43 8.68L21.98 8.68L21.98 8.68Q21.57 8.68 21.17 8.71L21.17 8.71L21.17 8.71Q20.77 8.73 20.41 8.82L20.41 8.82L20.41 7.11ZM31.72 17.09L29.80 17.09L29.80 12.89L29.80 12.89Q29.80 11.87 29.69 11.17L29.69 11.17L29.69 11.17Q29.58 10.47 29.46 10.12L29.46 10.12L31.34 10.12L31.34 10.12Q31.38 10.23 31.42 10.40L31.42 10.40L31.42 10.40Q31.47 10.58 31.50 10.77L31.50 10.77L31.50 10.77Q31.53 10.96 31.56 11.14L31.56 11.14L31.62 11.45L31.62 11.45Q31.86 11.09 32.14 10.82L32.14 10.82L32.14 10.82Q32.42 10.55 32.71 10.36L32.71 10.36L32.71 10.36Q32.99 10.17 33.26 10.08L33.26 10.08L33.26 10.08Q33.54 9.98 33.77 9.98L33.77 9.98L33.77 9.98Q34.25 9.98 34.59 10.19L34.59 10.19L34.59 10.19Q34.92 10.39 35.14 10.74L35.14 10.74L35.14 10.74Q35.36 11.09 35.45 11.56L35.45 11.56L35.45 11.56Q35.55 12.02 35.55 12.54L35.55 12.54L34.02 12.78L34.02 12.78Q33.99 12.32 33.80 12.03L33.80 12.03L33.80 12.03Q33.61 11.75 33.17 11.75L33.17 11.75L33.17 11.75Q33.00 11.75 32.78 11.90L32.78 11.90L32.78 11.90Q32.57 12.05 32.36 12.29L32.36 12.29L32.36 12.29Q32.16 12.53 31.98 12.84L31.98 12.84L31.98 12.84Q31.81 13.15 31.72 13.47L31.72 13.47L31.72 17.09ZM41.22 12.10L41.22 11.65L41.22 11.65Q41.08 11.61 40.80 11.56L40.80 11.56L40.80 11.56Q40.53 11.51 40.09 11.51L40.09 11.51L40.09 11.51Q39.55 11.51 39.19 11.74L39.19 11.74L39.19 11.74Q38.83 11.98 38.61 12.37L38.61 12.37L38.61 12.37Q38.40 12.76 38.31 13.25L38.31 13.25L38.31 13.25Q38.21 13.75 38.21 14.29L38.21 14.29L38.21 14.29Q38.21 14.59 38.27 14.83L38.27 14.83L38.27 14.83Q38.33 15.08 38.43 15.26L38.43 15.26L38.43 15.26Q38.53 15.44 38.67 15.53L38.67 15.53L38.67 15.53Q38.81 15.63 38.96 15.63L38.96 15.63L38.96 15.63Q39.22 15.63 39.48 15.43L39.48 15.43L39.48 15.43Q39.75 15.22 40.00 14.89L40.00 14.89L40.00 14.89Q40.25 14.56 40.47 14.16L40.47 14.16L40.47 14.16Q40.69 13.75 40.86 13.36L40.86 13.36L40.86 13.36Q41.03 12.97 41.13 12.63L41.13 12.63L41.13 12.63Q41.22 12.30 41.22 12.10L41.22 12.10ZM43.62 17.09L41.80 17.09L41.80 17.09Q41.73 16.97 41.66 16.71L41.66 16.71L41.66 16.71Q41.59 16.45 41.54 16.16L41.54 16.16L41.54 16.16Q41.49 15.86 41.46 15.57L41.46 15.57L41.46 15.57Q41.43 15.28 41.43 15.09L41.43 15.09L41.43 14.70L41.43 14.70Q41.21 15.14 40.90 15.60L40.90 15.60L40.90 15.60Q40.60 16.05 40.21 16.42L40.21 16.42L40.21 16.42Q39.82 16.79 39.35 17.02L39.35 17.02L39.35 17.02Q38.88 17.26 38.35 17.26L38.35 17.26L38.35 17.26Q37.92 17.26 37.54 17.07L37.54 17.07L37.54 17.07Q37.17 16.88 36.89 16.50L36.89 16.50L36.89 16.50Q36.61 16.13 36.46 15.57L36.46 15.57L36.46 15.57Q36.30 15.01 36.30 14.29L36.30 14.29L36.30 14.29Q36.30 13.47 36.54 12.70L36.54 12.70L36.54 12.70Q36.78 11.92 37.28 11.32L37.28 11.32L37.28 11.32Q37.78 10.71 38.55 10.35L38.55 10.35L38.55 10.35Q39.32 9.98 40.38 9.98L40.38 9.98L40.38 9.98Q41.13 9.98 41.86 10.07L41.86 10.07L41.86 10.07Q42.59 10.15 43.18 10.29L43.18 10.29L43.18 13.47L43.18 13.47Q43.18 14.76 43.30 15.64L43.30 15.64L43.30 15.64Q43.42 16.52 43.62 17.09L43.62 17.09ZM51.86 17.09L49.94 17.09L49.94 13.33L49.94 13.33Q49.94 12.86 49.88 12.54L49.88 12.54L49.88 12.54Q49.82 12.22 49.69 12.02L49.69 12.02L49.69 12.02Q49.56 11.83 49.36 11.74L49.36 11.74L49.36 11.74Q49.16 11.66 48.88 11.66L48.88 11.66L48.88 11.66Q48.59 11.66 48.31 11.79L48.31 11.79L48.31 11.79Q48.03 11.92 47.79 12.13L47.79 12.13L47.79 12.13Q47.55 12.34 47.37 12.60L47.37 12.60L47.37 12.60Q47.20 12.86 47.11 13.13L47.11 13.13L47.11 17.09L45.19 17.09L45.19 12.89L45.19 12.89Q45.19 11.87 45.08 11.17L45.08 11.17L45.08 11.17Q44.97 10.47 44.85 10.12L44.85 10.12L46.73 10.12L46.73 10.12Q46.77 10.22 46.81 10.39L46.81 10.39L46.81 10.39Q46.85 10.55 46.89 10.74L46.89 10.74L46.89 10.74Q46.92 10.92 46.95 11.09L46.95 11.09L47.00 11.38L47.00 11.38Q47.33 11.01 47.65 10.75L47.65 10.75L47.65 10.75Q47.96 10.48 48.28 10.31L48.28 10.31L48.28 10.31Q48.60 10.14 48.94 10.06L48.94 10.06L48.94 10.06Q49.27 9.98 49.64 9.98L49.64 9.98L49.64 9.98Q50.16 9.98 50.57 10.16L50.57 10.16L50.57 10.16Q50.98 10.34 51.27 10.69L51.27 10.69L51.27 10.69Q51.56 11.05 51.71 11.58L51.71 11.58L51.71 11.58Q51.86 12.11 51.86 12.82L51.86 12.82L51.86 17.09ZM58.90 10.53L58.63 12.16L58.63 12.16Q58.44 12.06 58.19 11.95L58.19 11.95L58.19 11.95Q57.95 11.83 57.66 11.74L57.66 11.74L57.66 11.74Q57.37 11.64 57.05 11.58L57.05 11.58L57.05 11.58Q56.72 11.51 56.37 11.51L56.37 11.51L56.37 11.51Q56.07 11.51 55.87 11.57L55.87 11.57L55.87 11.57Q55.67 11.62 55.54 11.70L55.54 11.70L55.54 11.70Q55.42 11.79 55.36 11.89L55.36 11.89L55.36 11.89Q55.31 12.00 55.31 12.10L55.31 12.10L55.31 12.10Q55.31 12.22 55.35 12.32L55.35 12.32L55.35 12.32Q55.40 12.41 55.54 12.50L55.54 12.50L55.54 12.50Q55.69 12.58 55.96 12.65L55.96 12.65L55.96 12.65Q56.23 12.73 56.68 12.82L56.68 12.82L56.68 12.82Q57.21 12.93 57.68 13.09L57.68 13.09L57.68 13.09Q58.15 13.25 58.51 13.50L58.51 13.50L58.51 13.50Q58.86 13.75 59.07 14.10L59.07 14.10L59.07 14.10Q59.27 14.45 59.27 14.94L59.27 14.94L59.27 14.94Q59.27 15.43 59.04 15.85L59.04 15.85L59.04 15.85Q58.81 16.28 58.41 16.59L58.41 16.59L58.41 16.59Q58.01 16.91 57.47 17.08L57.47 17.08L57.47 17.08Q56.92 17.26 56.30 17.26L56.30 17.26L56.30 17.26Q55.84 17.26 55.42 17.20L55.42 17.20L55.42 17.20Q54.99 17.14 54.61 17.03L54.61 17.03L54.61 17.03Q54.24 16.92 53.93 16.78L53.93 16.78L53.93 16.78Q53.62 16.63 53.40 16.47L53.40 16.47L53.77 14.81L53.77 14.81Q54.02 15.01 54.35 15.18L54.35 15.18L54.35 15.18Q54.67 15.35 55.01 15.48L55.01 15.48L55.01 15.48Q55.35 15.60 55.69 15.66L55.69 15.66L55.69 15.66Q56.03 15.73 56.33 15.73L56.33 15.73L56.33 15.73Q56.57 15.73 56.78 15.68L56.78 15.68L56.78 15.68Q56.98 15.63 57.12 15.54L57.12 15.54L57.12 15.54Q57.26 15.45 57.35 15.34L57.35 15.34L57.35 15.34Q57.43 15.23 57.43 15.11L57.43 15.11L57.43 15.11Q57.43 14.96 57.36 14.83L57.36 14.83L57.36 14.83Q57.29 14.70 57.11 14.58L57.11 14.58L57.11 14.58Q56.94 14.46 56.63 14.36L56.63 14.36L56.63 14.36Q56.31 14.25 55.82 14.14L55.82 14.14L55.82 14.14Q55.09 13.99 54.63 13.78L54.63 13.78L54.63 13.78Q54.17 13.58 53.92 13.32L53.92 13.32L53.92 13.32Q53.66 13.07 53.56 12.78L53.56 12.78L53.56 12.78Q53.46 12.49 53.46 12.17L53.46 12.17L53.46 12.17Q53.46 12.00 53.52 11.77L53.52 11.77L53.52 11.77Q53.58 11.55 53.71 11.30L53.71 11.30L53.71 11.30Q53.85 11.06 54.07 10.82L54.07 10.82L54.07 10.82Q54.29 10.59 54.62 10.40L54.62 10.40L54.62 10.40Q54.95 10.21 55.40 10.10L55.40 10.10L55.40 10.10Q55.85 9.98 56.44 9.98L56.44 9.98L56.44 9.98Q56.85 9.98 57.22 10.03L57.22 10.03L57.22 10.03Q57.58 10.08 57.89 10.15L57.89 10.15L57.89 10.15Q58.19 10.23 58.45 10.33L58.45 10.33L58.45 10.33Q58.70 10.43 58.90 10.53L58.90 10.53ZM62.93 6.15L62.93 13.84L62.93 13.84Q62.93 14.17 62.94 14.62L62.94 14.62L62.94 14.62Q62.95 15.06 62.97 15.52L62.97 15.52L62.97 15.52Q62.99 15.98 63.01 16.39L63.01 16.39L63.01 16.39Q63.03 16.81 63.07 17.09L63.07 17.09L61.02 17.09L61.02 9.37L61.02 9.37Q61.02 8.37 60.98 7.56L60.98 7.56L60.98 7.56Q60.95 6.75 60.88 6.15L60.88 6.15L62.93 6.15ZM69.77 12.10L69.77 11.65L69.77 11.65Q69.62 11.61 69.35 11.56L69.35 11.56L69.35 11.56Q69.08 11.51 68.64 11.51L68.64 11.51L68.64 11.51Q68.10 11.51 67.74 11.74L67.74 11.74L67.74 11.74Q67.38 11.98 67.16 12.37L67.16 12.37L67.16 12.37Q66.94 12.76 66.85 13.25L66.85 13.25L66.85 13.25Q66.76 13.75 66.76 14.29L66.76 14.29L66.76 14.29Q66.76 14.59 66.82 14.83L66.82 14.83L66.82 14.83Q66.88 15.08 66.98 15.26L66.98 15.26L66.98 15.26Q67.08 15.44 67.22 15.53L67.22 15.53L67.22 15.53Q67.35 15.63 67.51 15.63L67.51 15.63L67.51 15.63Q67.76 15.63 68.03 15.43L68.03 15.43L68.03 15.43Q68.30 15.22 68.55 14.89L68.55 14.89L68.55 14.89Q68.80 14.56 69.02 14.16L69.02 14.16L69.02 14.16Q69.24 13.75 69.41 13.36L69.41 13.36L69.41 13.36Q69.58 12.97 69.67 12.63L69.67 12.63L69.67 12.63Q69.77 12.30 69.77 12.10L69.77 12.10ZM72.17 17.09L70.35 17.09L70.35 17.09Q70.27 16.97 70.21 16.71L70.21 16.71L70.21 16.71Q70.14 16.45 70.09 16.16L70.09 16.16L70.09 16.16Q70.03 15.86 70.00 15.57L70.00 15.57L70.00 15.57Q69.97 15.28 69.97 15.09L69.97 15.09L69.97 14.70L69.97 14.70Q69.75 15.14 69.45 15.60L69.45 15.60L69.45 15.60Q69.15 16.05 68.76 16.42L68.76 16.42L68.76 16.42Q68.37 16.79 67.90 17.02L67.90 17.02L67.90 17.02Q67.43 17.26 66.90 17.26L66.90 17.26L66.90 17.26Q66.47 17.26 66.09 17.07L66.09 17.07L66.09 17.07Q65.71 16.88 65.44 16.50L65.44 16.50L65.44 16.50Q65.16 16.13 65.00 15.57L65.00 15.57L65.00 15.57Q64.85 15.01 64.85 14.29L64.85 14.29L64.85 14.29Q64.85 13.47 65.08 12.70L65.08 12.70L65.08 12.70Q65.32 11.92 65.82 11.32L65.82 11.32L65.82 11.32Q66.32 10.71 67.09 10.35L67.09 10.35L67.09 10.35Q67.87 9.98 68.93 9.98L68.93 9.98L68.93 9.98Q69.67 9.98 70.40 10.07L70.40 10.07L70.40 10.07Q71.13 10.15 71.72 10.29L71.72 10.29L71.72 13.47L71.72 13.47Q71.72 14.76 71.85 15.64L71.85 15.64L71.85 15.64Q71.97 16.52 72.17 17.09L72.17 17.09ZM78.25 11.59L76.17 11.59L76.17 13.93L76.17 13.93Q76.17 14.51 76.21 14.86L76.21 14.86L76.21 14.86Q76.26 15.20 76.37 15.39L76.37 15.39L76.37 15.39Q76.47 15.57 76.64 15.63L76.64 15.63L76.64 15.63Q76.80 15.68 77.03 15.68L77.03 15.68L77.03 15.68Q77.29 15.68 77.62 15.55L77.62 15.55L77.62 15.55Q77.94 15.42 78.35 15.17L78.35 15.17L78.35 16.70L78.35 16.70Q77.86 17.01 77.41 17.13L77.41 17.13L77.41 17.13Q76.97 17.26 76.60 17.26L76.60 17.26L76.60 17.26Q76.11 17.26 75.68 17.17L75.68 17.17L75.68 17.17Q75.26 17.08 74.94 16.84L74.94 16.84L74.94 16.84Q74.62 16.61 74.44 16.23L74.44 16.23L74.44 16.23Q74.25 15.84 74.25 15.24L74.25 15.24L74.25 11.59L72.95 11.59L72.95 10.22L74.25 10.22L74.25 8.07L76.17 8.07L76.17 10.22L78.25 10.22L78.25 11.59ZM85.70 14.01L81.29 14.01L81.29 14.01Q81.35 14.90 81.79 15.30L81.79 15.30L81.79 15.30Q82.22 15.69 83.00 15.69L83.00 15.69L83.00 15.69Q83.67 15.69 84.31 15.53L84.31 15.53L84.31 15.53Q84.95 15.38 85.59 15.00L85.59 15.00L85.74 16.58L85.74 16.58Q85.37 16.76 85.02 16.89L85.02 16.89L85.02 16.89Q84.66 17.02 84.31 17.10L84.31 17.10L84.31 17.10Q83.96 17.19 83.59 17.22L83.59 17.22L83.59 17.22Q83.22 17.26 82.82 17.26L82.82 17.26L82.82 17.26Q82.15 17.26 81.53 17.03L81.53 17.03L81.53 17.03Q80.91 16.80 80.44 16.35L80.44 16.35L80.44 16.35Q79.97 15.91 79.69 15.24L79.69 15.24L79.69 15.24Q79.41 14.58 79.41 13.71L79.41 13.71L79.41 13.71Q79.41 12.86 79.65 12.17L79.65 12.17L79.65 12.17Q79.88 11.48 80.33 11.00L80.33 11.00L80.33 11.00Q80.77 10.51 81.40 10.24L81.40 10.24L81.40 10.24Q82.03 9.98 82.82 9.98L82.82 9.98L82.82 9.98Q83.40 9.98 83.83 10.12L83.83 10.12L83.83 10.12Q84.27 10.26 84.58 10.50L84.58 10.50L84.58 10.50Q84.90 10.75 85.12 11.08L85.12 11.08L85.12 11.08Q85.33 11.41 85.46 11.80L85.46 11.80L85.46 11.80Q85.59 12.18 85.64 12.61L85.64 12.61L85.64 12.61Q85.70 13.03 85.70 13.45L85.70 13.45L85.70 13.58L85.70 13.58Q85.70 13.65 85.70 13.73L85.70 13.73L85.70 13.73Q85.70 13.82 85.70 13.89L85.70 13.89L85.70 14.01ZM82.73 11.42L82.73 11.42L82.73 11.42Q82.13 11.42 81.79 11.73L81.79 11.73L81.79 11.73Q81.44 12.05 81.33 12.78L81.33 12.78L83.96 12.78L83.96 12.78Q83.96 12.06 83.65 11.74L83.65 11.74L83.65 11.74Q83.34 11.42 82.73 11.42Z"></path></g><!----><g data-v-423bf9ae="" id="37e3e5c6-0cc3-47e2-8241-bc934019e454" transform="matrix(7.002883615041102,0,0,7.002883615041102,-5.997044652167148,-38.243482538571556)" stroke="none" fill="black"><path d="M23 9.32a1.06 1.06 0 0 0-.1-.76 4.93 4.93 0 0 0-6.75-1.8L14 8 9 5.65a1 1 0 0 0-.92 0l-3 1.73a1 1 0 0 0-.5.84 1 1 0 0 0 .46.87l3.3 2.08-1.74 1-4.78.58a1 1 0 0 0-.53 1.75l3.54 3.06a3 3 0 0 0 3.55.44L22.5 9.93a1 1 0 0 0 .5-.61zm-15.53 7a1 1 0 0 1-1.2-.18l-1.9-1.63 2.73-.33a1 1 0 0 0 .38-.13l3.36-1.93a1 1 0 0 0 .5-.85 1 1 0 0 0-.47-.86l-3.3-2.09 1.1-.63 5 2.32a1 1 0 0 0 .92 0l2.56-1.48a3 3 0 0 1 3.36.29z"></path></g><!----><g data-v-423bf9ae="" id="f6060755-6084-4568-8e15-f703392a496d" fill="black" transform="matrix(0.5876150016945554,0,0,0.5876150016945554,174.52860400929765,58.29591779838477)"><path d="M0.25 5.01C0.25 5.17 0.43 5.17 0.56 5.17C0.71 5.17 0.76 5.15 0.77 4.97L0.88 3.89C0.90 3.81 1.44 3.75 2.20 3.75L4.19 3.75C4.24 3.75 4.27 4.35 4.27 4.97C4.27 6.43 4.21 12.18 4.09 12.18L3.22 12.18C3.00 12.18 2.95 12.19 2.95 12.39C2.95 12.63 2.97 12.68 3.16 12.68C3.49 12.68 4.47 12.64 4.89 12.64C5.31 12.64 6.24 12.68 6.57 12.68C6.73 12.68 6.76 12.61 6.76 12.40C6.76 12.24 6.73 12.18 6.57 12.18L5.57 12.18C5.54 12.18 5.54 11.76 5.54 11.31C5.54 9.56 5.63 5.96 5.63 5.92C5.64 5.18 5.64 3.75 5.74 3.75L7.35 3.75C8.06 3.75 8.89 3.78 8.89 3.85C8.89 3.99 8.85 4.90 8.85 4.97C8.85 5.12 8.92 5.17 9.10 5.17C9.30 5.17 9.37 5.17 9.37 5.03C9.37 3.93 9.42 3.40 9.42 3.14C9.42 2.94 9.34 2.94 9.14 2.94C8.99 2.94 8.93 2.98 8.92 3.16C8.92 3.23 8.27 3.28 7.43 3.28L2.44 3.28C1.78 3.28 0.97 3.28 0.97 3.21L0.97 3.07C0.97 2.94 0.84 2.94 0.74 2.94C0.52 2.94 0.49 3.00 0.48 3.19C0.42 3.89 0.25 4.97 0.25 5.01ZM17.18 3.51C17.18 3.72 17.25 3.79 17.44 3.79L18.26 3.77C18.35 3.77 18.40 6.61 18.40 8.55L18.40 10.42C18.40 11.30 18.38 12.18 18.34 12.18L17.74 12.18C17.51 12.18 17.44 12.19 17.44 12.39C17.44 12.63 17.49 12.68 17.68 12.68C17.81 12.68 18.63 12.64 19.05 12.64C19.47 12.64 20.24 12.68 20.57 12.68C20.73 12.68 20.76 12.61 20.76 12.40C20.76 12.24 20.73 12.18 20.57 12.18L19.75 12.18C19.68 12.18 19.60 9.18 19.60 8.37C19.60 8.30 19.60 8.26 19.71 8.26C20.10 8.26 20.71 8.27 21 8.27C23.24 8.32 23.38 10.00 23.38 11.68L23.38 12.49C23.38 12.61 23.44 12.64 23.53 12.64C23.53 12.64 24.98 12.68 25.45 12.68C25.62 12.68 25.68 12.64 25.68 12.53C25.68 12.24 25.62 12.18 25.47 12.18L24.82 12.18C24.72 12.18 24.70 12.14 24.67 11.31C24.58 8.99 23.21 8.34 22.30 8.05C22.16 8.01 22.19 8.01 22.30 7.95C22.89 7.69 24.21 6.94 24.21 5.63C24.21 3.63 22.51 3.21 21.11 3.21C20.79 3.21 19.50 3.29 19.08 3.29C18.66 3.29 17.68 3.26 17.46 3.26C17.28 3.26 17.18 3.28 17.18 3.51ZM19.60 7.80L19.60 4.40C19.60 4.05 19.63 3.68 19.67 3.68C19.88 3.65 20.16 3.65 20.38 3.65C21.69 3.65 22.93 4.47 22.93 5.82C22.93 6.99 22.39 7.57 21.73 7.88C21.69 7.90 21.64 7.90 21.57 7.90C21.10 7.88 20.38 7.88 19.78 7.87C19.61 7.87 19.60 7.85 19.60 7.80ZM33.01 12.39C33.01 12.63 33.01 12.68 33.21 12.68C33.38 12.68 33.70 12.64 34.27 12.64C34.89 12.64 35.43 12.68 35.59 12.68C35.76 12.68 35.76 12.61 35.76 12.40C35.76 12.24 35.76 12.18 35.59 12.18L34.51 12.18C34.51 12.18 34.50 12.18 34.50 12.17C34.51 11.87 35.28 9.90 35.63 9.02C35.70 8.83 35.71 8.79 35.92 8.79L38.75 8.79C38.89 8.79 38.89 8.81 38.96 9.03C39.23 9.77 39.94 11.89 39.94 12.17C39.94 12.18 39.93 12.18 39.93 12.18L39.16 12.18C38.93 12.18 38.92 12.19 38.92 12.39C38.92 12.63 38.93 12.68 39.10 12.68C39.42 12.68 40.29 12.64 40.71 12.64C41.13 12.64 41.80 12.68 42.01 12.68C42.15 12.68 42.17 12.61 42.17 12.40C42.17 12.24 42.15 12.18 42.01 12.18L41.52 12.18C41.43 12.18 40.40 9.34 39.84 7.78L38.16 3.07C38.15 3.00 38.08 2.94 38.00 2.94C37.87 2.94 37.77 3.16 37.69 3.35C37.53 3.71 37.30 3.84 37.18 4.13L35.70 7.57C35.52 8.01 33.81 12.18 33.68 12.18L33.26 12.18C33.04 12.18 33.01 12.19 33.01 12.39ZM35.91 8.33C35.91 8.30 35.94 8.23 35.98 8.13L37.35 4.77C37.39 4.66 37.42 4.61 37.45 4.61C37.46 4.61 37.48 4.63 37.52 4.77L38.68 8.18C38.71 8.25 38.72 8.29 38.72 8.32C38.72 8.36 38.70 8.37 38.60 8.37L36.09 8.37C35.91 8.37 35.91 8.34 35.91 8.33ZM49.92 12.39C49.92 12.63 49.94 12.68 50.13 12.68C50.32 12.68 50.69 12.64 51.31 12.64C51.94 12.64 52.50 12.68 52.82 12.68C52.99 12.68 52.99 12.61 52.99 12.40C52.99 12.24 52.99 12.18 52.82 12.18L51.62 12.18C51.58 12.18 51.56 11.54 51.56 10.79C51.56 9.46 51.58 7.48 51.58 5.99C51.58 5.25 51.58 4.84 51.59 4.28C51.59 4.02 51.66 4.14 51.79 4.28L58.67 12.66C58.76 12.75 58.84 12.89 58.95 12.89C59.07 12.89 59.14 12.77 59.14 12.54C59.14 12.39 59.30 6.65 59.32 4.48C59.32 4.06 59.35 3.70 59.37 3.70L60.00 3.70C60.23 3.70 60.28 3.68 60.28 3.49C60.28 3.25 60.28 3.19 60.09 3.19C59.89 3.19 59.46 3.23 58.90 3.23C58.28 3.23 57.48 3.19 57.39 3.19C57.22 3.19 57.22 3.26 57.22 3.47C57.22 3.64 57.22 3.70 57.39 3.70L58.69 3.70C58.70 3.70 58.70 4.33 58.70 4.44C58.70 5.85 58.73 8.33 58.73 9.70L58.73 10.29C58.73 10.57 58.72 10.65 58.49 10.37L52.81 3.39C52.70 3.25 52.67 3.19 52.50 3.19C52.42 3.19 52.04 3.23 51.73 3.23C51.44 3.23 50.36 3.19 50.16 3.19C49.99 3.19 49.97 3.26 49.97 3.47C49.97 3.64 49.99 3.70 50.16 3.70L51.07 3.70C51.07 4.17 51.03 8.53 50.96 10.79C50.93 11.69 50.95 12.18 50.83 12.18L50.19 12.18C49.97 12.18 49.92 12.19 49.92 12.39ZM68.53 5.77C68.53 9.07 73.51 8.20 73.51 10.65C73.51 11.59 72.67 12.31 71.69 12.31C70.87 12.31 69.27 11.83 69.24 11.47L69.16 10.15C69.15 9.97 69.08 9.91 68.89 9.91L68.82 9.91C68.61 9.91 68.61 10.00 68.61 10.12C68.61 10.32 68.73 11.66 68.75 12.17C68.77 12.38 70.03 12.85 71.57 12.85C73.14 12.85 74.75 11.87 74.75 10.11C74.75 6.79 69.78 7.87 69.78 5.32C69.78 4.31 70.56 3.56 71.60 3.56C72.62 3.56 73.71 4.58 73.71 4.89C73.71 5.01 73.67 5.73 73.67 5.78C73.67 5.92 73.71 5.99 73.98 5.99C74.21 5.99 74.23 5.94 74.23 5.75C74.23 5.04 74.31 3.68 74.31 3.53C74.31 3.30 74.27 3.29 74.00 3.29C73.78 3.29 73.77 3.32 73.75 3.53C73.75 3.61 73.74 3.78 73.70 3.78C73.64 3.78 73.56 3.74 73.49 3.68C72.69 3.14 72.07 3.08 71.57 3.08C70.04 3.08 68.53 4.17 68.53 5.77ZM82.71 12.39C82.71 12.63 82.74 12.68 82.94 12.68C83.26 12.68 84.22 12.64 84.64 12.64C85.06 12.64 89.42 12.68 89.74 12.68C90.01 12.68 90.08 12.66 90.09 12.49C90.15 12.08 90.38 10.72 90.38 10.60C90.38 10.47 90.23 10.44 90.06 10.43C89.96 10.42 89.88 10.46 89.87 10.56L89.70 11.76C89.66 12.05 89.64 12.03 89.42 12.04C89.26 12.05 86.76 12.12 85.33 12.12C85.29 12.12 85.25 11.38 85.25 10.54L85.25 6.66C85.25 5.40 85.26 3.70 85.36 3.70L86.34 3.70C86.58 3.70 86.60 3.63 86.60 3.44C86.60 3.23 86.59 3.19 86.35 3.19C86.03 3.19 85.09 3.23 84.67 3.23C84.25 3.23 83.31 3.19 83.09 3.19C82.87 3.19 82.81 3.22 82.81 3.44C82.81 3.65 82.85 3.70 83.05 3.70L83.87 3.70C83.92 3.70 83.94 4.23 83.94 4.90L83.94 8.13C83.94 10.07 83.92 12.18 83.83 12.18L82.99 12.18C82.77 12.18 82.71 12.21 82.71 12.39ZM97.86 12.39C97.86 12.63 97.86 12.68 98.06 12.68C98.22 12.68 98.55 12.64 99.12 12.64C99.74 12.64 100.28 12.68 100.44 12.68C100.60 12.68 100.60 12.61 100.60 12.40C100.60 12.24 100.60 12.18 100.44 12.18L99.36 12.18C99.36 12.18 99.34 12.18 99.34 12.17C99.36 11.87 100.13 9.90 100.48 9.02C100.55 8.83 100.56 8.79 100.77 8.79L103.60 8.79C103.74 8.79 103.74 8.81 103.81 9.03C104.08 9.77 104.79 11.89 104.79 12.17C104.79 12.18 104.78 12.18 104.78 12.18L104.01 12.18C103.78 12.18 103.77 12.19 103.77 12.39C103.77 12.63 103.78 12.68 103.95 12.68C104.27 12.68 105.14 12.64 105.56 12.64C105.98 12.64 106.65 12.68 106.86 12.68C107.00 12.68 107.02 12.61 107.02 12.40C107.02 12.24 107.00 12.18 106.86 12.18L106.37 12.18C106.27 12.18 105.25 9.34 104.69 7.78L103.01 3.07C103.00 3.00 102.93 2.94 102.84 2.94C102.72 2.94 102.62 3.16 102.54 3.35C102.38 3.71 102.14 3.84 102.03 4.13L100.55 7.57C100.37 8.01 98.66 12.18 98.53 12.18L98.11 12.18C97.89 12.18 97.86 12.19 97.86 12.39ZM100.76 8.33C100.76 8.30 100.79 8.23 100.83 8.13L102.20 4.77C102.24 4.66 102.27 4.61 102.30 4.61C102.31 4.61 102.33 4.63 102.37 4.77L103.53 8.18C103.56 8.25 103.57 8.29 103.57 8.32C103.57 8.36 103.54 8.37 103.45 8.37L100.94 8.37C100.76 8.37 100.76 8.34 100.76 8.33ZM113.11 5.01C113.11 5.17 113.29 5.17 113.41 5.17C113.57 5.17 113.61 5.15 113.62 4.97L113.74 3.89C113.75 3.81 114.30 3.75 115.05 3.75L117.04 3.75C117.10 3.75 117.12 4.35 117.12 4.97C117.12 6.43 117.07 12.18 116.94 12.18L116.07 12.18C115.85 12.18 115.81 12.19 115.81 12.39C115.81 12.63 115.82 12.68 116.02 12.68C116.34 12.68 117.32 12.64 117.74 12.64C118.16 12.64 119.10 12.68 119.42 12.68C119.59 12.68 119.62 12.61 119.62 12.40C119.62 12.24 119.59 12.18 119.42 12.18L118.43 12.18C118.40 12.18 118.40 11.76 118.40 11.31C118.40 9.56 118.48 5.96 118.48 5.92C118.50 5.18 118.50 3.75 118.59 3.75L120.20 3.75C120.92 3.75 121.74 3.78 121.74 3.85C121.74 3.99 121.70 4.90 121.70 4.97C121.70 5.12 121.77 5.17 121.95 5.17C122.15 5.17 122.22 5.17 122.22 5.03C122.22 3.93 122.28 3.40 122.28 3.14C122.28 2.94 122.19 2.94 122.00 2.94C121.84 2.94 121.79 2.98 121.77 3.16C121.77 3.23 121.13 3.28 120.29 3.28L115.29 3.28C114.63 3.28 113.82 3.28 113.82 3.21L113.82 3.07C113.82 2.94 113.69 2.94 113.60 2.94C113.37 2.94 113.34 3.00 113.33 3.19C113.27 3.89 113.11 4.97 113.11 5.01ZM130.03 12.39C130.03 12.63 130.06 12.68 130.26 12.68C130.58 12.68 131.54 12.64 131.96 12.64C132.38 12.64 136.89 12.68 137.21 12.68C137.34 12.68 137.49 12.66 137.49 12.49C137.49 12.07 137.54 11.23 137.54 10.53C137.54 10.39 137.38 10.39 137.26 10.39C137.14 10.39 137.02 10.39 137.02 10.51C137.00 11.06 137.00 11.41 136.98 11.76C136.95 12.01 136.95 12.04 136.85 12.04C136.70 12.04 134.06 12.08 132.57 12.08C132.50 12.08 132.45 10.11 132.41 8.26C132.41 8.06 132.45 8.09 132.59 8.09L134.88 8.09C135.58 8.09 135.60 8.20 135.60 8.30L135.60 9.00C135.60 9.14 135.79 9.14 135.90 9.14C136.00 9.14 136.12 9.13 136.12 9.02C136.12 8.83 136.09 8.33 136.09 7.83C136.09 7.32 136.12 6.83 136.12 6.71C136.12 6.59 135.98 6.58 135.88 6.58C135.77 6.58 135.60 6.59 135.60 6.72L135.60 7.45C135.60 7.62 135.16 7.63 134.88 7.63L132.54 7.63C132.43 7.63 132.41 7.63 132.41 7.45C132.40 6.75 132.38 6.06 132.38 5.46C132.38 5.12 132.38 3.71 132.47 3.71C133.70 3.71 136.21 3.75 136.21 3.81C136.21 3.99 136.16 4.83 136.16 4.89C136.16 5.04 136.23 5.10 136.42 5.10C136.61 5.10 136.68 5.08 136.68 4.94C136.68 3.85 136.74 3.36 136.74 3.09C136.74 2.91 136.65 2.90 136.46 2.90C136.26 2.90 136.26 2.95 136.23 3.11C136.22 3.25 136.29 3.25 135.38 3.25C134.76 3.25 132.62 3.29 131.85 3.29C131.36 3.29 130.42 3.25 130.33 3.25C130.20 3.25 130.14 3.30 130.14 3.49C130.14 3.72 130.21 3.74 130.38 3.74L131.04 3.74C131.10 3.74 131.17 4.79 131.17 5.71C131.17 5.80 131.22 8.27 131.22 9.83L131.22 11.17C131.22 11.84 131.19 12.18 131.17 12.18L130.31 12.18C130.09 12.18 130.03 12.21 130.03 12.39ZM155.51 5.77C155.51 9.07 160.50 8.20 160.50 10.65C160.50 11.59 159.66 12.31 158.68 12.31C157.85 12.31 156.25 11.83 156.23 11.47L156.14 10.15C156.13 9.97 156.06 9.91 155.88 9.91L155.81 9.91C155.60 9.91 155.60 10.00 155.60 10.12C155.60 10.32 155.71 11.66 155.74 12.17C155.75 12.38 157.01 12.85 158.55 12.85C160.12 12.85 161.73 11.87 161.73 10.11C161.73 6.79 156.76 7.87 156.76 5.32C156.76 4.31 157.54 3.56 158.58 3.56C159.60 3.56 160.69 4.58 160.69 4.89C160.69 5.01 160.65 5.73 160.65 5.78C160.65 5.92 160.69 5.99 160.96 5.99C161.20 5.99 161.21 5.94 161.21 5.75C161.21 5.04 161.29 3.68 161.29 3.53C161.29 3.30 161.25 3.29 160.99 3.29C160.76 3.29 160.75 3.32 160.73 3.53C160.73 3.61 160.72 3.78 160.68 3.78C160.62 3.78 160.54 3.74 160.47 3.68C159.67 3.14 159.05 3.08 158.55 3.08C157.02 3.08 155.51 4.17 155.51 5.77ZM169.76 7.91C169.76 11.31 172.13 12.87 174.72 12.87C176.50 12.87 178.28 11.90 178.32 11.59C178.49 10.29 178.54 9.70 178.54 9.66C178.54 9.56 178.50 9.52 178.33 9.51C178.28 9.51 178.22 9.49 178.18 9.49C178.07 9.49 178.01 9.53 177.98 9.70L177.80 11.33C177.79 11.45 176.68 12.24 175.11 12.24C172.98 12.24 171.28 10.29 171.28 7.94C171.28 5.42 172.70 3.54 174.71 3.54C176.55 3.54 177.90 5.01 177.90 5.17C177.90 5.29 177.84 6.40 177.84 6.45C177.84 6.59 177.88 6.64 178.15 6.64C178.35 6.64 178.42 6.62 178.42 6.44C178.42 5.73 178.47 3.92 178.47 3.67C178.47 3.47 178.36 3.44 178.15 3.44C177.93 3.44 177.90 3.50 177.90 3.67L177.90 4.05C177.90 4.16 177.86 4.16 177.73 4.06C177.45 3.86 176.47 3.04 174.80 3.04C171.96 3.04 169.76 4.96 169.76 7.91ZM186.93 3.51C186.93 3.72 187.00 3.79 187.19 3.79L188.01 3.77C188.10 3.77 188.15 6.61 188.15 8.55L188.15 10.42C188.15 11.30 188.13 12.18 188.09 12.18L187.49 12.18C187.26 12.18 187.19 12.19 187.19 12.39C187.19 12.63 187.24 12.68 187.43 12.68C187.56 12.68 188.38 12.64 188.80 12.64C189.22 12.64 189.99 12.68 190.32 12.68C190.48 12.68 190.51 12.61 190.51 12.40C190.51 12.24 190.48 12.18 190.32 12.18L189.50 12.18C189.43 12.18 189.35 9.18 189.35 8.37C189.35 8.30 189.35 8.26 189.46 8.26C189.85 8.26 190.46 8.27 190.75 8.27C192.99 8.32 193.13 10.00 193.13 11.68L193.13 12.49C193.13 12.61 193.19 12.64 193.28 12.64C193.28 12.64 194.73 12.68 195.20 12.68C195.37 12.68 195.43 12.64 195.43 12.53C195.43 12.24 195.37 12.18 195.22 12.18L194.57 12.18C194.47 12.18 194.45 12.14 194.42 11.31C194.33 8.99 192.96 8.34 192.05 8.05C191.91 8.01 191.94 8.01 192.05 7.95C192.64 7.69 193.96 6.94 193.96 5.63C193.96 3.63 192.26 3.21 190.86 3.21C190.54 3.21 189.25 3.29 188.83 3.29C188.41 3.29 187.43 3.26 187.21 3.26C187.03 3.26 186.93 3.28 186.93 3.51ZM189.35 7.80L189.35 4.40C189.35 4.05 189.38 3.68 189.42 3.68C189.63 3.65 189.91 3.65 190.13 3.65C191.44 3.65 192.68 4.47 192.68 5.82C192.68 6.99 192.14 7.57 191.48 7.88C191.44 7.90 191.39 7.90 191.32 7.90C190.85 7.88 190.13 7.88 189.53 7.87C189.36 7.87 189.35 7.85 189.35 7.80ZM202.90 12.39C202.90 12.63 202.93 12.68 203.13 12.68C203.45 12.68 204.41 12.64 204.83 12.64C205.25 12.64 209.76 12.68 210.08 12.68C210.21 12.68 210.36 12.66 210.36 12.49C210.36 12.07 210.41 11.23 210.41 10.53C210.41 10.39 210.25 10.39 210.13 10.39C210.01 10.39 209.89 10.39 209.89 10.51C209.87 11.06 209.87 11.41 209.85 11.76C209.82 12.01 209.82 12.04 209.72 12.04C209.57 12.04 206.93 12.08 205.44 12.08C205.37 12.08 205.32 10.11 205.28 8.26C205.28 8.06 205.32 8.09 205.46 8.09L207.75 8.09C208.45 8.09 208.47 8.20 208.47 8.30L208.47 9.00C208.47 9.14 208.66 9.14 208.77 9.14C208.87 9.14 208.99 9.13 208.99 9.02C208.99 8.83 208.96 8.33 208.96 7.83C208.96 7.32 208.99 6.83 208.99 6.71C208.99 6.59 208.85 6.58 208.75 6.58C208.64 6.58 208.47 6.59 208.47 6.72L208.47 7.45C208.47 7.62 208.03 7.63 207.75 7.63L205.41 7.63C205.30 7.63 205.28 7.63 205.28 7.45C205.27 6.75 205.25 6.06 205.25 5.46C205.25 5.12 205.25 3.71 205.34 3.71C206.57 3.71 209.08 3.75 209.08 3.81C209.08 3.99 209.03 4.83 209.03 4.89C209.03 5.04 209.10 5.10 209.29 5.10C209.48 5.10 209.55 5.08 209.55 4.94C209.55 3.85 209.61 3.36 209.61 3.09C209.61 2.91 209.52 2.90 209.33 2.90C209.13 2.90 209.13 2.95 209.10 3.11C209.09 3.25 209.16 3.25 208.25 3.25C207.63 3.25 205.49 3.29 204.72 3.29C204.23 3.29 203.29 3.25 203.20 3.25C203.07 3.25 203.01 3.30 203.01 3.49C203.01 3.72 203.08 3.74 203.25 3.74L203.91 3.74C203.97 3.74 204.04 4.79 204.04 5.71C204.04 5.80 204.09 8.27 204.09 9.83L204.09 11.17C204.09 11.84 204.06 12.18 204.04 12.18L203.18 12.18C202.96 12.18 202.90 12.21 202.90 12.39ZM218.37 12.39C218.37 12.63 218.40 12.68 218.60 12.68C218.92 12.68 219.88 12.64 220.30 12.64C220.72 12.64 225.23 12.68 225.55 12.68C225.68 12.68 225.83 12.66 225.83 12.49C225.83 12.07 225.88 11.23 225.88 10.53C225.88 10.39 225.72 10.39 225.60 10.39C225.48 10.39 225.36 10.39 225.36 10.51C225.34 11.06 225.34 11.41 225.32 11.76C225.29 12.01 225.29 12.04 225.19 12.04C225.04 12.04 222.40 12.08 220.91 12.08C220.84 12.08 220.79 10.11 220.75 8.26C220.75 8.06 220.79 8.09 220.93 8.09L223.22 8.09C223.92 8.09 223.94 8.20 223.94 8.30L223.94 9.00C223.94 9.14 224.13 9.14 224.24 9.14C224.34 9.14 224.46 9.13 224.46 9.02C224.46 8.83 224.43 8.33 224.43 7.83C224.43 7.32 224.46 6.83 224.46 6.71C224.46 6.59 224.32 6.58 224.22 6.58C224.11 6.58 223.94 6.59 223.94 6.72L223.94 7.45C223.94 7.62 223.50 7.63 223.22 7.63L220.88 7.63C220.77 7.63 220.75 7.63 220.75 7.45C220.74 6.75 220.72 6.06 220.72 5.46C220.72 5.12 220.72 3.71 220.81 3.71C222.04 3.71 224.55 3.75 224.55 3.81C224.55 3.99 224.50 4.83 224.50 4.89C224.50 5.04 224.57 5.10 224.76 5.10C224.95 5.10 225.02 5.08 225.02 4.94C225.02 3.85 225.08 3.36 225.08 3.09C225.08 2.91 224.99 2.90 224.80 2.90C224.60 2.90 224.60 2.95 224.57 3.11C224.56 3.25 224.63 3.25 223.72 3.25C223.10 3.25 220.96 3.29 220.19 3.29C219.70 3.29 218.76 3.25 218.67 3.25C218.54 3.25 218.48 3.30 218.48 3.49C218.48 3.72 218.55 3.74 218.72 3.74L219.38 3.74C219.44 3.74 219.51 4.79 219.51 5.71C219.51 5.80 219.56 8.27 219.56 9.83L219.56 11.17C219.56 11.84 219.53 12.18 219.51 12.18L218.65 12.18C218.43 12.18 218.37 12.21 218.37 12.39ZM233.84 12.39C233.84 12.63 233.86 12.68 234.05 12.68C234.23 12.68 234.61 12.64 235.23 12.64C235.86 12.64 236.42 12.68 236.74 12.68C236.91 12.68 236.91 12.61 236.91 12.40C236.91 12.24 236.91 12.18 236.74 12.18L235.54 12.18C235.49 12.18 235.48 11.54 235.48 10.79C235.48 9.46 235.49 7.48 235.49 5.99C235.49 5.25 235.49 4.84 235.51 4.28C235.51 4.02 235.58 4.14 235.70 4.28L242.59 12.66C242.68 12.75 242.76 12.89 242.87 12.89C242.98 12.89 243.05 12.77 243.05 12.54C243.05 12.39 243.22 6.65 243.24 4.48C243.24 4.06 243.26 3.70 243.29 3.70L243.92 3.70C244.15 3.70 244.20 3.68 244.20 3.49C244.20 3.25 244.20 3.19 244.01 3.19C243.81 3.19 243.38 3.23 242.82 3.23C242.20 3.23 241.40 3.19 241.30 3.19C241.14 3.19 241.14 3.26 241.14 3.47C241.14 3.64 241.14 3.70 241.30 3.70L242.61 3.70C242.62 3.70 242.62 4.33 242.62 4.44C242.62 5.85 242.65 8.33 242.65 9.70L242.65 10.29C242.65 10.57 242.63 10.65 242.41 10.37L236.73 3.39C236.61 3.25 236.59 3.19 236.42 3.19C236.33 3.19 235.96 3.23 235.65 3.23C235.35 3.23 234.28 3.19 234.08 3.19C233.91 3.19 233.88 3.26 233.88 3.47C233.88 3.64 233.91 3.70 234.08 3.70L234.99 3.70C234.99 4.17 234.95 8.53 234.88 10.79C234.85 11.69 234.86 12.18 234.75 12.18L234.11 12.18C233.88 12.18 233.84 12.19 233.84 12.39ZM261.77 5.01C261.77 5.17 261.95 5.17 262.08 5.17C262.23 5.17 262.28 5.15 262.29 4.97L262.40 3.89C262.42 3.81 262.96 3.75 263.72 3.75L265.71 3.75C265.76 3.75 265.79 4.35 265.79 4.97C265.79 6.43 265.73 12.18 265.61 12.18L264.74 12.18C264.52 12.18 264.47 12.19 264.47 12.39C264.47 12.63 264.49 12.68 264.68 12.68C265.01 12.68 265.99 12.64 266.41 12.64C266.83 12.64 267.76 12.68 268.09 12.68C268.25 12.68 268.28 12.61 268.28 12.40C268.28 12.24 268.25 12.18 268.09 12.18L267.09 12.18C267.06 12.18 267.06 11.76 267.06 11.31C267.06 9.56 267.15 5.96 267.15 5.92C267.16 5.18 267.16 3.75 267.26 3.75L268.87 3.75C269.58 3.75 270.41 3.78 270.41 3.85C270.41 3.99 270.37 4.90 270.37 4.97C270.37 5.12 270.44 5.17 270.62 5.17C270.82 5.17 270.89 5.17 270.89 5.03C270.89 3.93 270.94 3.40 270.94 3.14C270.94 2.94 270.86 2.94 270.66 2.94C270.51 2.94 270.45 2.98 270.44 3.16C270.44 3.23 269.79 3.28 268.95 3.28L263.96 3.28C263.30 3.28 262.49 3.28 262.49 3.21L262.49 3.07C262.49 2.94 262.36 2.94 262.26 2.94C262.04 2.94 262.01 3.00 262.00 3.19C261.94 3.89 261.77 4.97 261.77 5.01ZM278.70 12.39C278.70 12.63 278.73 12.68 278.92 12.68C279.24 12.68 280.21 12.64 280.63 12.64C281.05 12.64 285.56 12.68 285.88 12.68C286.01 12.68 286.16 12.66 286.16 12.49C286.16 12.07 286.20 11.23 286.20 10.53C286.20 10.39 286.05 10.39 285.92 10.39C285.81 10.39 285.68 10.39 285.68 10.51C285.67 11.06 285.67 11.41 285.64 11.76C285.61 12.01 285.61 12.04 285.52 12.04C285.36 12.04 282.73 12.08 281.23 12.08C281.16 12.08 281.12 10.11 281.08 8.26C281.08 8.06 281.12 8.09 281.26 8.09L283.54 8.09C284.24 8.09 284.27 8.20 284.27 8.30L284.27 9.00C284.27 9.14 284.45 9.14 284.56 9.14C284.66 9.14 284.79 9.13 284.79 9.02C284.79 8.83 284.76 8.33 284.76 7.83C284.76 7.32 284.79 6.83 284.79 6.71C284.79 6.59 284.65 6.58 284.55 6.58C284.44 6.58 284.27 6.59 284.27 6.72L284.27 7.45C284.27 7.62 283.82 7.63 283.54 7.63L281.20 7.63C281.09 7.63 281.08 7.63 281.08 7.45C281.06 6.75 281.05 6.06 281.05 5.46C281.05 5.12 281.05 3.71 281.13 3.71C282.37 3.71 284.87 3.75 284.87 3.81C284.87 3.99 284.83 4.83 284.83 4.89C284.83 5.04 284.90 5.10 285.08 5.10C285.28 5.10 285.35 5.08 285.35 4.94C285.35 3.85 285.40 3.36 285.40 3.09C285.40 2.91 285.32 2.90 285.12 2.90C284.93 2.90 284.93 2.95 284.90 3.11C284.89 3.25 284.96 3.25 284.05 3.25C283.43 3.25 281.29 3.29 280.52 3.29C280.03 3.29 279.09 3.25 278.99 3.25C278.87 3.25 278.81 3.30 278.81 3.49C278.81 3.72 278.88 3.74 279.05 3.74L279.71 3.74C279.76 3.74 279.83 4.79 279.83 5.71C279.83 5.80 279.89 8.27 279.89 9.83L279.89 11.17C279.89 11.84 279.86 12.18 279.83 12.18L278.98 12.18C278.75 12.18 278.70 12.21 278.70 12.39ZM293.75 12.43C293.75 12.66 293.83 12.68 294.01 12.68C294.24 12.68 294.76 12.64 295.18 12.64C295.60 12.64 296.02 12.68 296.34 12.68C296.53 12.68 296.58 12.63 296.58 12.39C296.58 12.19 296.51 12.18 296.28 12.18L295.51 12.18C295.34 12.18 295.41 12.11 295.54 11.90C296.07 11.03 297.42 9.09 297.82 8.51C297.86 8.44 297.89 8.46 297.93 8.53C298.47 9.42 299.60 11.30 299.96 12.03C300.03 12.14 300.02 12.18 299.89 12.18L299.19 12.18C298.97 12.18 298.90 12.19 298.90 12.39C298.90 12.63 298.94 12.68 299.14 12.68C299.46 12.68 300.34 12.64 300.76 12.64C301.18 12.64 301.99 12.68 302.22 12.68C302.44 12.68 302.48 12.67 302.48 12.43C302.48 12.19 302.46 12.18 302.19 12.18L301.71 12.18C301.63 12.18 299.18 8.32 298.75 7.63C298.72 7.59 298.70 7.53 298.75 7.48C299.03 7.06 300.03 5.78 300.86 4.59C301.17 4.14 301.48 3.77 301.52 3.77L301.84 3.77C302.01 3.77 302.11 3.75 302.11 3.51C302.11 3.29 302.02 3.26 301.84 3.26C301.62 3.26 301.20 3.30 300.78 3.30C300.27 3.30 299.91 3.26 299.68 3.26C299.49 3.26 299.45 3.32 299.45 3.56C299.45 3.75 299.52 3.77 299.74 3.77L300.52 3.77L300.52 3.78C300.52 3.99 300.10 4.68 299.64 5.36C299.52 5.56 298.76 6.72 298.49 7.10C298.47 7.14 298.45 7.15 298.44 7.15C298.41 7.15 298.35 7.04 298.31 6.99C297.85 6.17 296.97 4.61 296.69 3.92C296.65 3.81 296.59 3.77 296.76 3.77L297.33 3.77C297.56 3.77 297.63 3.75 297.63 3.56C297.63 3.32 297.61 3.26 297.42 3.26C297.09 3.26 296.45 3.30 296.03 3.30C295.61 3.30 294.59 3.26 294.36 3.26C294.18 3.26 294.10 3.28 294.10 3.51C294.10 3.75 294.21 3.77 294.38 3.77L294.92 3.77C295.01 3.77 297.33 7.56 297.54 7.91C297.61 8.01 297.63 8.05 297.56 8.15C296.88 9.02 296.16 9.88 295.54 10.79C295.04 11.52 294.60 12.18 294.53 12.18L294.01 12.18C293.85 12.18 293.75 12.19 293.75 12.43ZM309.83 5.01C309.83 5.17 310.02 5.17 310.14 5.17C310.30 5.17 310.34 5.15 310.35 4.97L310.46 3.89C310.48 3.81 311.02 3.75 311.78 3.75L313.77 3.75C313.82 3.75 313.85 4.35 313.85 4.97C313.85 6.43 313.80 12.18 313.67 12.18L312.80 12.18C312.58 12.18 312.54 12.19 312.54 12.39C312.54 12.63 312.55 12.68 312.75 12.68C313.07 12.68 314.05 12.64 314.47 12.64C314.89 12.64 315.83 12.68 316.15 12.68C316.32 12.68 316.34 12.61 316.34 12.40C316.34 12.24 316.32 12.18 316.15 12.18L315.15 12.18C315.13 12.18 315.13 11.76 315.13 11.31C315.13 9.56 315.21 5.96 315.21 5.92C315.22 5.18 315.22 3.75 315.32 3.75L316.93 3.75C317.65 3.75 318.47 3.78 318.47 3.85C318.47 3.99 318.43 4.90 318.43 4.97C318.43 5.12 318.50 5.17 318.68 5.17C318.88 5.17 318.95 5.17 318.95 5.03C318.95 3.93 319.00 3.40 319.00 3.14C319.00 2.94 318.92 2.94 318.72 2.94C318.57 2.94 318.51 2.98 318.50 3.16C318.50 3.23 317.86 3.28 317.02 3.28L312.02 3.28C311.36 3.28 310.55 3.28 310.55 3.21L310.55 3.07C310.55 2.94 310.42 2.94 310.32 2.94C310.10 2.94 310.07 3.00 310.06 3.19C310.00 3.89 309.83 4.97 309.83 5.01ZM336.63 8.15C336.63 11.17 338.97 12.80 341.22 12.80C344.01 12.80 345.98 10.89 345.98 8.06C345.98 5.33 344.23 3.11 341.43 3.11C338.83 3.11 336.63 5.10 336.63 8.15ZM338.03 7.77C338.03 5.64 339.32 3.58 341.29 3.58C343.53 3.58 344.61 5.81 344.61 7.94C344.61 10.08 343.50 12.32 341.24 12.32C339.25 12.32 338.03 10.28 338.03 7.77ZM354.09 12.39C354.09 12.63 354.10 12.68 354.30 12.68C354.48 12.68 354.86 12.64 355.47 12.64C356.10 12.64 356.66 12.68 356.99 12.68C357.15 12.68 357.15 12.61 357.15 12.40C357.15 12.24 357.15 12.18 356.99 12.18L355.78 12.18C355.74 12.18 355.73 11.54 355.73 10.79C355.73 9.46 355.74 7.48 355.74 5.99C355.74 5.25 355.74 4.84 355.75 4.28C355.75 4.02 355.82 4.14 355.95 4.28L362.84 12.66C362.92 12.75 363.01 12.89 363.12 12.89C363.23 12.89 363.30 12.77 363.30 12.54C363.30 12.39 363.47 6.65 363.48 4.48C363.48 4.06 363.51 3.70 363.54 3.70L364.17 3.70C364.39 3.70 364.45 3.68 364.45 3.49C364.45 3.25 364.45 3.19 364.25 3.19C364.06 3.19 363.62 3.23 363.06 3.23C362.45 3.23 361.65 3.19 361.55 3.19C361.38 3.19 361.38 3.26 361.38 3.47C361.38 3.64 361.38 3.70 361.55 3.70L362.85 3.70C362.87 3.70 362.87 4.33 362.87 4.44C362.87 5.85 362.89 8.33 362.89 9.70L362.89 10.29C362.89 10.57 362.88 10.65 362.66 10.37L356.97 3.39C356.86 3.25 356.83 3.19 356.66 3.19C356.58 3.19 356.20 3.23 355.89 3.23C355.60 3.23 354.52 3.19 354.33 3.19C354.16 3.19 354.13 3.26 354.13 3.47C354.13 3.64 354.16 3.70 354.33 3.70L355.24 3.70C355.24 4.17 355.19 8.53 355.12 10.79C355.10 11.69 355.11 12.18 355.00 12.18L354.35 12.18C354.13 12.18 354.09 12.19 354.09 12.39ZM382.02 5.01C382.02 5.17 382.20 5.17 382.33 5.17C382.48 5.17 382.52 5.15 382.54 4.97L382.65 3.89C382.66 3.81 383.21 3.75 383.96 3.75L385.95 3.75C386.01 3.75 386.04 4.35 386.04 4.97C386.04 6.43 385.98 12.18 385.85 12.18L384.99 12.18C384.76 12.18 384.72 12.19 384.72 12.39C384.72 12.63 384.73 12.68 384.93 12.68C385.25 12.68 386.23 12.64 386.65 12.64C387.07 12.64 388.01 12.68 388.33 12.68C388.50 12.68 388.53 12.61 388.53 12.40C388.53 12.24 388.50 12.18 388.33 12.18L387.34 12.18C387.31 12.18 387.31 11.76 387.31 11.31C387.31 9.56 387.39 5.96 387.39 5.92C387.41 5.18 387.41 3.75 387.51 3.75L389.12 3.75C389.83 3.75 390.66 3.78 390.66 3.85C390.66 3.99 390.61 4.90 390.61 4.97C390.61 5.12 390.68 5.17 390.87 5.17C391.06 5.17 391.13 5.17 391.13 5.03C391.13 3.93 391.19 3.40 391.19 3.14C391.19 2.94 391.10 2.94 390.91 2.94C390.75 2.94 390.70 2.98 390.68 3.16C390.68 3.23 390.04 3.28 389.20 3.28L384.20 3.28C383.54 3.28 382.73 3.28 382.73 3.21L382.73 3.07C382.73 2.94 382.61 2.94 382.51 2.94C382.28 2.94 382.26 3.00 382.24 3.19C382.19 3.89 382.02 4.97 382.02 5.01ZM398.94 12.39C398.94 12.63 398.94 12.68 399.14 12.68C399.46 12.68 400.40 12.64 400.82 12.64C401.24 12.64 402.07 12.68 402.39 12.68C402.56 12.68 402.56 12.61 402.56 12.40C402.56 12.24 402.56 12.18 402.39 12.18L401.46 12.18C401.38 12.18 401.34 9.93 401.34 8.20C401.34 8.01 401.34 8.01 401.46 8.01L406.70 8.01C406.77 8.01 406.78 8.01 406.78 8.18L406.78 9.91C406.78 11.05 406.77 12.18 406.71 12.18L405.94 12.18C405.72 12.18 405.68 12.19 405.68 12.39C405.68 12.63 405.69 12.68 405.89 12.68C406.21 12.68 407.05 12.64 407.47 12.64C407.89 12.64 408.48 12.68 408.80 12.68C408.97 12.68 408.98 12.61 408.98 12.40C408.98 12.24 408.97 12.18 408.80 12.18L408.06 12.18C408.02 12.18 408.00 9.27 408.00 7.04C408.00 5.40 408.00 3.70 408.04 3.70L408.66 3.70C408.88 3.70 408.93 3.68 408.93 3.49C408.93 3.25 408.91 3.19 408.72 3.19C408.58 3.19 407.95 3.23 407.36 3.23C406.69 3.23 406.08 3.19 405.86 3.19C405.66 3.19 405.64 3.22 405.64 3.44C405.64 3.67 405.71 3.70 405.87 3.70L406.67 3.70C406.73 3.70 406.78 4.79 406.78 5.71L406.78 7.42C406.78 7.59 406.78 7.59 406.62 7.59L401.51 7.59C401.34 7.59 401.34 7.59 401.34 7.38C401.34 6.96 401.32 6.23 401.32 5.53C401.32 4.66 401.34 3.70 401.39 3.70L402.16 3.70C402.39 3.70 402.43 3.68 402.43 3.49C402.43 3.25 402.42 3.19 402.22 3.19C401.90 3.19 401.31 3.23 400.71 3.23C400.12 3.23 399.63 3.19 399.41 3.19C399.22 3.19 399.13 3.21 399.13 3.44C399.13 3.68 399.24 3.70 399.41 3.70L400.02 3.70C400.08 3.70 400.09 5.59 400.09 7.18L400.09 8.61C400.09 10.08 400.08 12.18 400.01 12.18L399.20 12.18C398.97 12.18 398.94 12.19 398.94 12.39ZM417.02 12.39C417.02 12.63 417.05 12.68 417.24 12.68C417.56 12.68 418.53 12.64 418.95 12.64C419.37 12.64 423.88 12.68 424.20 12.68C424.33 12.68 424.48 12.66 424.48 12.49C424.48 12.07 424.52 11.23 424.52 10.53C424.52 10.39 424.37 10.39 424.24 10.39C424.13 10.39 424.00 10.39 424.00 10.51C423.99 11.06 423.99 11.41 423.96 11.76C423.93 12.01 423.93 12.04 423.84 12.04C423.68 12.04 421.05 12.08 419.55 12.08C419.48 12.08 419.44 10.11 419.40 8.26C419.40 8.06 419.44 8.09 419.58 8.09L421.86 8.09C422.56 8.09 422.59 8.20 422.59 8.30L422.59 9.00C422.59 9.14 422.77 9.14 422.88 9.14C422.98 9.14 423.11 9.13 423.11 9.02C423.11 8.83 423.08 8.33 423.08 7.83C423.08 7.32 423.11 6.83 423.11 6.71C423.11 6.59 422.97 6.58 422.87 6.58C422.76 6.58 422.59 6.59 422.59 6.72L422.59 7.45C422.59 7.62 422.14 7.63 421.86 7.63L419.52 7.63C419.41 7.63 419.40 7.63 419.40 7.45C419.38 6.75 419.37 6.06 419.37 5.46C419.37 5.12 419.37 3.71 419.45 3.71C420.69 3.71 423.19 3.75 423.19 3.81C423.19 3.99 423.15 4.83 423.15 4.89C423.15 5.04 423.22 5.10 423.40 5.10C423.60 5.10 423.67 5.08 423.67 4.94C423.67 3.85 423.72 3.36 423.72 3.09C423.72 2.91 423.64 2.90 423.44 2.90C423.25 2.90 423.25 2.95 423.22 3.11C423.21 3.25 423.28 3.25 422.37 3.25C421.75 3.25 419.61 3.29 418.84 3.29C418.35 3.29 417.41 3.25 417.31 3.25C417.19 3.25 417.13 3.30 417.13 3.49C417.13 3.72 417.20 3.74 417.37 3.74L418.03 3.74C418.08 3.74 418.15 4.79 418.15 5.71C418.15 5.80 418.21 8.27 418.21 9.83L418.21 11.17C418.21 11.84 418.18 12.18 418.15 12.18L417.30 12.18C417.07 12.18 417.02 12.21 417.02 12.39ZM442.29 3.49C442.29 3.72 442.40 3.74 442.57 3.74L443.18 3.74C443.24 3.74 443.31 4.79 443.31 5.71C443.31 5.80 443.37 8.27 443.37 9.83L443.37 11.17C443.37 11.84 443.35 12.18 443.30 12.18L442.71 12.18C442.48 12.18 442.41 12.19 442.41 12.39C442.41 12.63 442.43 12.68 442.62 12.68C442.83 12.68 443.67 12.64 444.09 12.64C444.51 12.64 445.45 12.68 445.77 12.68C445.94 12.68 445.97 12.61 445.97 12.40C445.97 12.24 445.94 12.18 445.77 12.18L444.64 12.18C444.58 12.18 444.60 10.16 444.56 8.33C444.56 8.08 444.54 8.09 444.74 8.09L447.16 8.09C447.86 8.09 447.89 8.19 447.89 8.30L447.89 9.16C447.89 9.28 448.07 9.28 448.18 9.28C448.28 9.28 448.41 9.28 448.41 9.17C448.41 8.99 448.38 8.33 448.38 7.83C448.38 7.32 448.41 6.82 448.41 6.69C448.41 6.58 448.29 6.58 448.17 6.58C448.00 6.58 447.89 6.58 447.89 6.71L447.89 7.45C447.89 7.62 447.44 7.63 447.16 7.63L444.74 7.63C444.53 7.63 444.56 7.66 444.56 7.45C444.54 7.13 444.53 6.15 444.53 5.26C444.53 4.52 444.54 3.71 444.61 3.71C446.01 3.71 448.20 3.75 448.49 3.79C448.49 3.96 448.45 4.82 448.45 4.89C448.45 5.04 448.52 5.10 448.70 5.10C448.90 5.10 448.97 5.08 448.97 4.94C448.97 3.85 449.02 3.36 449.02 3.09C449.02 2.93 448.94 2.90 448.74 2.90C448.62 2.90 448.55 2.90 448.52 3.11C448.50 3.25 448.57 3.25 447.62 3.25C447.02 3.25 444.74 3.29 444.00 3.29C443.51 3.29 442.57 3.25 442.47 3.25C442.34 3.25 442.29 3.30 442.29 3.49ZM456.99 12.39C456.99 12.63 457.02 12.68 457.21 12.68C457.53 12.68 458.50 12.64 458.92 12.64C459.34 12.64 463.69 12.68 464.02 12.68C464.28 12.68 464.35 12.66 464.37 12.49C464.42 12.08 464.66 10.72 464.66 10.60C464.66 10.47 464.51 10.44 464.34 10.43C464.24 10.42 464.16 10.46 464.14 10.56L463.97 11.76C463.93 12.05 463.92 12.03 463.69 12.04C463.54 12.05 461.03 12.12 459.61 12.12C459.56 12.12 459.52 11.38 459.52 10.54L459.52 6.66C459.52 5.40 459.54 3.70 459.63 3.70L460.61 3.70C460.85 3.70 460.88 3.63 460.88 3.44C460.88 3.23 460.87 3.19 460.63 3.19C460.31 3.19 459.37 3.23 458.95 3.23C458.53 3.23 457.59 3.19 457.37 3.19C457.14 3.19 457.09 3.22 457.09 3.44C457.09 3.65 457.13 3.70 457.32 3.70L458.15 3.70C458.19 3.70 458.22 4.23 458.22 4.90L458.22 8.13C458.22 10.07 458.19 12.18 458.11 12.18L457.27 12.18C457.04 12.18 456.99 12.21 456.99 12.39ZM471.44 3.44C471.44 3.68 471.52 3.70 471.69 3.70L472.09 3.70C472.22 3.70 474.47 7.74 474.88 8.50C474.94 8.60 474.98 8.65 474.98 8.81C474.98 10.50 474.96 12.18 474.84 12.18L474.12 12.18C473.90 12.18 473.86 12.19 473.86 12.39C473.86 12.63 473.87 12.68 474.07 12.68C474.26 12.68 475.08 12.64 475.66 12.64C476.49 12.64 477.02 12.68 477.34 12.68C477.51 12.68 477.54 12.61 477.54 12.40C477.54 12.24 477.51 12.18 477.34 12.18L476.38 12.18C476.28 12.18 476.25 9.72 476.25 8.22C476.25 8.18 476.25 8.15 476.29 8.09C476.84 7.22 478.79 3.70 478.86 3.70L479.33 3.70C479.50 3.70 479.60 3.68 479.60 3.44C479.60 3.22 479.51 3.19 479.33 3.19C479.11 3.19 478.87 3.23 478.27 3.23C477.68 3.23 477.34 3.19 477.18 3.19C476.98 3.19 476.94 3.25 476.94 3.49C476.94 3.68 477.01 3.70 477.23 3.70L477.96 3.70C477.97 3.70 477.99 3.71 477.99 3.74C477.99 4.05 476.42 6.99 476.04 7.71C475.93 7.92 475.93 7.88 475.82 7.67C475.41 6.89 474.12 4.56 473.83 3.85C473.77 3.71 473.76 3.70 473.94 3.70L474.77 3.70C474.99 3.70 475.02 3.68 475.02 3.49C475.02 3.25 474.98 3.19 474.82 3.19C474.59 3.19 473.97 3.23 473.17 3.23C472.36 3.23 471.87 3.19 471.69 3.19C471.51 3.19 471.44 3.21 471.44 3.44ZM487.77 12.07C487.77 12.31 488.24 12.75 488.64 12.75C488.82 12.75 489.27 12.35 489.27 11.90C489.27 11.51 488.70 11.20 488.43 11.20C488.17 11.20 487.77 11.76 487.77 12.07ZM488.01 3.53C488.01 4.28 488.19 6.93 488.28 10.05C488.28 10.19 488.40 10.23 488.50 10.23C488.60 10.23 488.74 10.19 488.74 10.05C488.91 6.36 489.10 3.64 489.10 3.47C489.10 3.19 488.95 3.14 488.63 3.14C488.26 3.14 488.01 3.21 488.01 3.53Z"></path></g></svg>