<svg data-v-423bf9ae="" xmlns="http://www.w3.org/2000/svg" viewBox="0 0 359.1943520911753 60" class="font"><!----><!----><!----><g data-v-423bf9ae="" id="5e3e4bc4-b84a-4c4e-bf21-6c553f483dfa" fill="white" transform="matrix(4.240282799826114,0,0,4.240282799826114,-4.367494232552929,-26.07774010015264)"><path d="M3.08 11.21L6.87 11.21L6.87 12.75L3.08 12.75L3.08 14.30L3.08 14.30Q3.08 15.26 3.09 15.99L3.09 15.99L3.09 15.99Q3.10 16.71 3.18 17.09L3.18 17.09L1.03 17.09L1.03 17.09Q1.10 16.68 1.11 15.90L1.11 15.90L1.11 15.90Q1.13 15.13 1.13 14.12L1.13 14.12L1.13 9.16L1.13 9.16Q1.13 8.70 1.12 8.32L1.12 8.32L1.12 8.32Q1.11 7.93 1.09 7.62L1.09 7.62L1.09 7.62Q1.07 7.31 1.03 7.11L1.03 7.11L7.45 7.11L7.45 8.68L3.08 8.68L3.08 11.21ZM11.35 6.15L11.35 13.84L11.35 13.84Q11.35 14.17 11.36 14.62L11.36 14.62L11.36 14.62Q11.37 15.06 11.39 15.52L11.39 15.52L11.39 15.52Q11.40 15.98 11.43 16.39L11.43 16.39L11.43 16.39Q11.45 16.81 11.48 17.09L11.48 17.09L9.43 17.09L9.43 9.37L9.43 9.37Q9.43 8.37 9.40 7.56L9.40 7.56L9.40 7.56Q9.37 6.75 9.30 6.15L9.30 6.15L11.35 6.15ZM19.04 12.54L17.40 17.09L17.40 17.09Q17.04 18.08 16.68 18.71L16.68 18.71L16.68 18.71Q16.32 19.33 15.93 19.69L15.93 19.69L15.93 19.69Q15.55 20.04 15.13 20.17L15.13 20.17L15.13 20.17Q14.72 20.30 14.25 20.30L14.25 20.30L14.25 20.30Q13.78 20.30 13.33 20.15L13.33 20.15L13.33 20.15Q12.89 20.00 12.51 19.72L12.51 19.72L12.99 18.23L12.99 18.23Q13.10 18.32 13.24 18.41L13.24 18.41L13.24 18.41Q13.39 18.50 13.56 18.58L13.56 18.58L13.56 18.58Q13.73 18.65 13.90 18.70L13.90 18.70L13.90 18.70Q14.08 18.74 14.25 18.74L14.25 18.74L14.25 18.74Q14.40 18.74 14.56 18.69L14.56 18.69L14.56 18.69Q14.72 18.63 14.89 18.47L14.89 18.47L14.89 18.47Q15.05 18.31 15.23 18.01L15.23 18.01L15.23 18.01Q15.42 17.71 15.62 17.21L15.62 17.21L13.81 12.54L13.81 12.54Q13.62 12.07 13.37 11.49L13.37 11.49L13.37 11.49Q13.11 10.92 12.71 10.12L12.71 10.12L14.85 10.12L16.50 15.09L16.50 15.09Q16.58 14.76 16.69 14.37L16.69 14.37L16.69 14.37Q16.80 13.99 16.92 13.58L16.92 13.58L16.92 13.58Q17.04 13.17 17.15 12.75L17.15 12.75L17.15 12.75Q17.27 12.33 17.38 11.95L17.38 11.95L17.38 11.95Q17.63 11.05 17.89 10.12L17.89 10.12L20.03 10.12L20.03 10.12Q19.85 10.51 19.71 10.85L19.71 10.85L19.71 10.85Q19.56 11.19 19.44 11.49L19.44 11.49L19.44 11.49Q19.32 11.79 19.22 12.04L19.22 12.04L19.22 12.04Q19.12 12.30 19.04 12.54L19.04 12.54ZM20.41 7.11L28.44 7.11L28.44 8.82L28.44 8.82Q28.07 8.73 27.67 8.71L27.67 8.71L27.67 8.71Q27.28 8.68 26.86 8.68L26.86 8.68L25.38 8.68L25.38 14.27L25.38 14.27Q25.38 15.22 25.41 15.96L25.41 15.96L25.41 15.96Q25.43 16.70 25.52 17.09L25.52 17.09L23.30 17.09L23.30 17.09Q23.39 16.70 23.41 15.96L23.41 15.96L23.41 15.96Q23.43 15.22 23.43 14.27L23.43 14.27L23.43 8.68L21.98 8.68L21.98 8.68Q21.57 8.68 21.17 8.71L21.17 8.71L21.17 8.71Q20.77 8.73 20.41 8.82L20.41 8.82L20.41 7.11ZM31.72 17.09L29.80 17.09L29.80 12.89L29.80 12.89Q29.80 11.87 29.69 11.17L29.69 11.17L29.69 11.17Q29.58 10.47 29.46 10.12L29.46 10.12L31.34 10.12L31.34 10.12Q31.38 10.23 31.42 10.40L31.42 10.40L31.42 10.40Q31.47 10.58 31.50 10.77L31.50 10.77L31.50 10.77Q31.53 10.96 31.56 11.14L31.56 11.14L31.62 11.45L31.62 11.45Q31.86 11.09 32.14 10.82L32.14 10.82L32.14 10.82Q32.42 10.55 32.71 10.36L32.71 10.36L32.71 10.36Q32.99 10.17 33.26 10.08L33.26 10.08L33.26 10.08Q33.54 9.98 33.77 9.98L33.77 9.98L33.77 9.98Q34.25 9.98 34.59 10.19L34.59 10.19L34.59 10.19Q34.92 10.39 35.14 10.74L35.14 10.74L35.14 10.74Q35.36 11.09 35.45 11.56L35.45 11.56L35.45 11.56Q35.55 12.02 35.55 12.54L35.55 12.54L34.02 12.78L34.02 12.78Q33.99 12.32 33.80 12.03L33.80 12.03L33.80 12.03Q33.61 11.75 33.17 11.75L33.17 11.75L33.17 11.75Q33.00 11.75 32.78 11.90L32.78 11.90L32.78 11.90Q32.57 12.05 32.36 12.29L32.36 12.29L32.36 12.29Q32.16 12.53 31.98 12.84L31.98 12.84L31.98 12.84Q31.81 13.15 31.72 13.47L31.72 13.47L31.72 17.09ZM41.22 12.10L41.22 11.65L41.22 11.65Q41.08 11.61 40.80 11.56L40.80 11.56L40.80 11.56Q40.53 11.51 40.09 11.51L40.09 11.51L40.09 11.51Q39.55 11.51 39.19 11.74L39.19 11.74L39.19 11.74Q38.83 11.98 38.61 12.37L38.61 12.37L38.61 12.37Q38.40 12.76 38.31 13.25L38.31 13.25L38.31 13.25Q38.21 13.75 38.21 14.29L38.21 14.29L38.21 14.29Q38.21 14.59 38.27 14.83L38.27 14.83L38.27 14.83Q38.33 15.08 38.43 15.26L38.43 15.26L38.43 15.26Q38.53 15.44 38.67 15.53L38.67 15.53L38.67 15.53Q38.81 15.63 38.96 15.63L38.96 15.63L38.96 15.63Q39.22 15.63 39.48 15.43L39.48 15.43L39.48 15.43Q39.75 15.22 40.00 14.89L40.00 14.89L40.00 14.89Q40.25 14.56 40.47 14.16L40.47 14.16L40.47 14.16Q40.69 13.75 40.86 13.36L40.86 13.36L40.86 13.36Q41.03 12.97 41.13 12.63L41.13 12.63L41.13 12.63Q41.22 12.30 41.22 12.10L41.22 12.10ZM43.62 17.09L41.80 17.09L41.80 17.09Q41.73 16.97 41.66 16.71L41.66 16.71L41.66 16.71Q41.59 16.45 41.54 16.16L41.54 16.16L41.54 16.16Q41.49 15.86 41.46 15.57L41.46 15.57L41.46 15.57Q41.43 15.28 41.43 15.09L41.43 15.09L41.43 14.70L41.43 14.70Q41.21 15.14 40.90 15.60L40.90 15.60L40.90 15.60Q40.60 16.05 40.21 16.42L40.21 16.42L40.21 16.42Q39.82 16.79 39.35 17.02L39.35 17.02L39.35 17.02Q38.88 17.26 38.35 17.26L38.35 17.26L38.35 17.26Q37.92 17.26 37.54 17.07L37.54 17.07L37.54 17.07Q37.17 16.88 36.89 16.50L36.89 16.50L36.89 16.50Q36.61 16.13 36.46 15.57L36.46 15.57L36.46 15.57Q36.30 15.01 36.30 14.29L36.30 14.29L36.30 14.29Q36.30 13.47 36.54 12.70L36.54 12.70L36.54 12.70Q36.78 11.92 37.28 11.32L37.28 11.32L37.28 11.32Q37.78 10.71 38.55 10.35L38.55 10.35L38.55 10.35Q39.32 9.98 40.38 9.98L40.38 9.98L40.38 9.98Q41.13 9.98 41.86 10.07L41.86 10.07L41.86 10.07Q42.59 10.15 43.18 10.29L43.18 10.29L43.18 13.47L43.18 13.47Q43.18 14.76 43.30 15.64L43.30 15.64L43.30 15.64Q43.42 16.52 43.62 17.09L43.62 17.09ZM51.86 17.09L49.94 17.09L49.94 13.33L49.94 13.33Q49.94 12.86 49.88 12.54L49.88 12.54L49.88 12.54Q49.82 12.22 49.69 12.02L49.69 12.02L49.69 12.02Q49.56 11.83 49.36 11.74L49.36 11.74L49.36 11.74Q49.16 11.66 48.88 11.66L48.88 11.66L48.88 11.66Q48.59 11.66 48.31 11.79L48.31 11.79L48.31 11.79Q48.03 11.92 47.79 12.13L47.79 12.13L47.79 12.13Q47.55 12.34 47.37 12.60L47.37 12.60L47.37 12.60Q47.20 12.86 47.11 13.13L47.11 13.13L47.11 17.09L45.19 17.09L45.19 12.89L45.19 12.89Q45.19 11.87 45.08 11.17L45.08 11.17L45.08 11.17Q44.97 10.47 44.85 10.12L44.85 10.12L46.73 10.12L46.73 10.12Q46.77 10.22 46.81 10.39L46.81 10.39L46.81 10.39Q46.85 10.55 46.89 10.74L46.89 10.74L46.89 10.74Q46.92 10.92 46.95 11.09L46.95 11.09L47.00 11.38L47.00 11.38Q47.33 11.01 47.65 10.75L47.65 10.75L47.65 10.75Q47.96 10.48 48.28 10.31L48.28 10.31L48.28 10.31Q48.60 10.14 48.94 10.06L48.94 10.06L48.94 10.06Q49.27 9.98 49.64 9.98L49.64 9.98L49.64 9.98Q50.16 9.98 50.57 10.16L50.57 10.16L50.57 10.16Q50.98 10.34 51.27 10.69L51.27 10.69L51.27 10.69Q51.56 11.05 51.71 11.58L51.71 11.58L51.71 11.58Q51.86 12.11 51.86 12.82L51.86 12.82L51.86 17.09ZM58.90 10.53L58.63 12.16L58.63 12.16Q58.44 12.06 58.19 11.95L58.19 11.95L58.19 11.95Q57.95 11.83 57.66 11.74L57.66 11.74L57.66 11.74Q57.37 11.64 57.05 11.58L57.05 11.58L57.05 11.58Q56.72 11.51 56.37 11.51L56.37 11.51L56.37 11.51Q56.07 11.51 55.87 11.57L55.87 11.57L55.87 11.57Q55.67 11.62 55.54 11.70L55.54 11.70L55.54 11.70Q55.42 11.79 55.36 11.89L55.36 11.89L55.36 11.89Q55.31 12.00 55.31 12.10L55.31 12.10L55.31 12.10Q55.31 12.22 55.35 12.32L55.35 12.32L55.35 12.32Q55.40 12.41 55.54 12.50L55.54 12.50L55.54 12.50Q55.69 12.58 55.96 12.65L55.96 12.65L55.96 12.65Q56.23 12.73 56.68 12.82L56.68 12.82L56.68 12.82Q57.21 12.93 57.68 13.09L57.68 13.09L57.68 13.09Q58.15 13.25 58.51 13.50L58.51 13.50L58.51 13.50Q58.86 13.75 59.07 14.10L59.07 14.10L59.07 14.10Q59.27 14.45 59.27 14.94L59.27 14.94L59.27 14.94Q59.27 15.43 59.04 15.85L59.04 15.85L59.04 15.85Q58.81 16.28 58.41 16.59L58.41 16.59L58.41 16.59Q58.01 16.91 57.47 17.08L57.47 17.08L57.47 17.08Q56.92 17.26 56.30 17.26L56.30 17.26L56.30 17.26Q55.84 17.26 55.42 17.20L55.42 17.20L55.42 17.20Q54.99 17.14 54.61 17.03L54.61 17.03L54.61 17.03Q54.24 16.92 53.93 16.78L53.93 16.78L53.93 16.78Q53.62 16.63 53.40 16.47L53.40 16.47L53.77 14.81L53.77 14.81Q54.02 15.01 54.35 15.18L54.35 15.18L54.35 15.18Q54.67 15.35 55.01 15.48L55.01 15.48L55.01 15.48Q55.35 15.60 55.69 15.66L55.69 15.66L55.69 15.66Q56.03 15.73 56.33 15.73L56.33 15.73L56.33 15.73Q56.57 15.73 56.78 15.68L56.78 15.68L56.78 15.68Q56.98 15.63 57.12 15.54L57.12 15.54L57.12 15.54Q57.26 15.45 57.35 15.34L57.35 15.34L57.35 15.34Q57.43 15.23 57.43 15.11L57.43 15.11L57.43 15.11Q57.43 14.96 57.36 14.83L57.36 14.83L57.36 14.83Q57.29 14.70 57.11 14.58L57.11 14.58L57.11 14.58Q56.94 14.46 56.63 14.36L56.63 14.36L56.63 14.36Q56.31 14.25 55.82 14.14L55.82 14.14L55.82 14.14Q55.09 13.99 54.63 13.78L54.63 13.78L54.63 13.78Q54.17 13.58 53.92 13.32L53.92 13.32L53.92 13.32Q53.66 13.07 53.56 12.78L53.56 12.78L53.56 12.78Q53.46 12.49 53.46 12.17L53.46 12.17L53.46 12.17Q53.46 12.00 53.52 11.77L53.52 11.77L53.52 11.77Q53.58 11.55 53.71 11.30L53.71 11.30L53.71 11.30Q53.85 11.06 54.07 10.82L54.07 10.82L54.07 10.82Q54.29 10.59 54.62 10.40L54.62 10.40L54.62 10.40Q54.95 10.21 55.40 10.10L55.40 10.10L55.40 10.10Q55.85 9.98 56.44 9.98L56.44 9.98L56.44 9.98Q56.85 9.98 57.22 10.03L57.22 10.03L57.22 10.03Q57.58 10.08 57.89 10.15L57.89 10.15L57.89 10.15Q58.19 10.23 58.45 10.33L58.45 10.33L58.45 10.33Q58.70 10.43 58.90 10.53L58.90 10.53ZM62.93 6.15L62.93 13.84L62.93 13.84Q62.93 14.17 62.94 14.62L62.94 14.62L62.94 14.62Q62.95 15.06 62.97 15.52L62.97 15.52L62.97 15.52Q62.99 15.98 63.01 16.39L63.01 16.39L63.01 16.39Q63.03 16.81 63.07 17.09L63.07 17.09L61.02 17.09L61.02 9.37L61.02 9.37Q61.02 8.37 60.98 7.56L60.98 7.56L60.98 7.56Q60.95 6.75 60.88 6.15L60.88 6.15L62.93 6.15ZM69.77 12.10L69.77 11.65L69.77 11.65Q69.62 11.61 69.35 11.56L69.35 11.56L69.35 11.56Q69.08 11.51 68.64 11.51L68.64 11.51L68.64 11.51Q68.10 11.51 67.74 11.74L67.74 11.74L67.74 11.74Q67.38 11.98 67.16 12.37L67.16 12.37L67.16 12.37Q66.94 12.76 66.85 13.25L66.85 13.25L66.85 13.25Q66.76 13.75 66.76 14.29L66.76 14.29L66.76 14.29Q66.76 14.59 66.82 14.83L66.82 14.83L66.82 14.83Q66.88 15.08 66.98 15.26L66.98 15.26L66.98 15.26Q67.08 15.44 67.22 15.53L67.22 15.53L67.22 15.53Q67.35 15.63 67.51 15.63L67.51 15.63L67.51 15.63Q67.76 15.63 68.03 15.43L68.03 15.43L68.03 15.43Q68.30 15.22 68.55 14.89L68.55 14.89L68.55 14.89Q68.80 14.56 69.02 14.16L69.02 14.16L69.02 14.16Q69.24 13.75 69.41 13.36L69.41 13.36L69.41 13.36Q69.58 12.97 69.67 12.63L69.67 12.63L69.67 12.63Q69.77 12.30 69.77 12.10L69.77 12.10ZM72.17 17.09L70.35 17.09L70.35 17.09Q70.27 16.97 70.21 16.71L70.21 16.71L70.21 16.71Q70.14 16.45 70.09 16.16L70.09 16.16L70.09 16.16Q70.03 15.86 70.00 15.57L70.00 15.57L70.00 15.57Q69.97 15.28 69.97 15.09L69.97 15.09L69.97 14.70L69.97 14.70Q69.75 15.14 69.45 15.60L69.45 15.60L69.45 15.60Q69.15 16.05 68.76 16.42L68.76 16.42L68.76 16.42Q68.37 16.79 67.90 17.02L67.90 17.02L67.90 17.02Q67.43 17.26 66.90 17.26L66.90 17.26L66.90 17.26Q66.47 17.26 66.09 17.07L66.09 17.07L66.09 17.07Q65.71 16.88 65.44 16.50L65.44 16.50L65.44 16.50Q65.16 16.13 65.00 15.57L65.00 15.57L65.00 15.57Q64.85 15.01 64.85 14.29L64.85 14.29L64.85 14.29Q64.85 13.47 65.08 12.70L65.08 12.70L65.08 12.70Q65.32 11.92 65.82 11.32L65.82 11.32L65.82 11.32Q66.32 10.71 67.09 10.35L67.09 10.35L67.09 10.35Q67.87 9.98 68.93 9.98L68.93 9.98L68.93 9.98Q69.67 9.98 70.40 10.07L70.40 10.07L70.40 10.07Q71.13 10.15 71.72 10.29L71.72 10.29L71.72 13.47L71.72 13.47Q71.72 14.76 71.85 15.64L71.85 15.64L71.85 15.64Q71.97 16.52 72.17 17.09L72.17 17.09ZM78.25 11.59L76.17 11.59L76.17 13.93L76.17 13.93Q76.17 14.51 76.21 14.86L76.21 14.86L76.21 14.86Q76.26 15.20 76.37 15.39L76.37 15.39L76.37 15.39Q76.47 15.57 76.64 15.63L76.64 15.63L76.64 15.63Q76.80 15.68 77.03 15.68L77.03 15.68L77.03 15.68Q77.29 15.68 77.62 15.55L77.62 15.55L77.62 15.55Q77.94 15.42 78.35 15.17L78.35 15.17L78.35 16.70L78.35 16.70Q77.86 17.01 77.41 17.13L77.41 17.13L77.41 17.13Q76.97 17.26 76.60 17.26L76.60 17.26L76.60 17.26Q76.11 17.26 75.68 17.17L75.68 17.17L75.68 17.17Q75.26 17.08 74.94 16.84L74.94 16.84L74.94 16.84Q74.62 16.61 74.44 16.23L74.44 16.23L74.44 16.23Q74.25 15.84 74.25 15.24L74.25 15.24L74.25 11.59L72.95 11.59L72.95 10.22L74.25 10.22L74.25 8.07L76.17 8.07L76.17 10.22L78.25 10.22L78.25 11.59ZM85.70 14.01L81.29 14.01L81.29 14.01Q81.35 14.90 81.79 15.30L81.79 15.30L81.79 15.30Q82.22 15.69 83.00 15.69L83.00 15.69L83.00 15.69Q83.67 15.69 84.31 15.53L84.31 15.53L84.31 15.53Q84.95 15.38 85.59 15.00L85.59 15.00L85.74 16.58L85.74 16.58Q85.37 16.76 85.02 16.89L85.02 16.89L85.02 16.89Q84.66 17.02 84.31 17.10L84.31 17.10L84.31 17.10Q83.96 17.19 83.59 17.22L83.59 17.22L83.59 17.22Q83.22 17.26 82.82 17.26L82.82 17.26L82.82 17.26Q82.15 17.26 81.53 17.03L81.53 17.03L81.53 17.03Q80.91 16.80 80.44 16.35L80.44 16.35L80.44 16.35Q79.97 15.91 79.69 15.24L79.69 15.24L79.69 15.24Q79.41 14.58 79.41 13.71L79.41 13.71L79.41 13.71Q79.41 12.86 79.65 12.17L79.65 12.17L79.65 12.17Q79.88 11.48 80.33 11.00L80.33 11.00L80.33 11.00Q80.77 10.51 81.40 10.24L81.40 10.24L81.40 10.24Q82.03 9.98 82.82 9.98L82.82 9.98L82.82 9.98Q83.40 9.98 83.83 10.12L83.83 10.12L83.83 10.12Q84.27 10.26 84.58 10.50L84.58 10.50L84.58 10.50Q84.90 10.75 85.12 11.08L85.12 11.08L85.12 11.08Q85.33 11.41 85.46 11.80L85.46 11.80L85.46 11.80Q85.59 12.18 85.64 12.61L85.64 12.61L85.64 12.61Q85.70 13.03 85.70 13.45L85.70 13.45L85.70 13.58L85.70 13.58Q85.70 13.65 85.70 13.73L85.70 13.73L85.70 13.73Q85.70 13.82 85.70 13.89L85.70 13.89L85.70 14.01ZM82.73 11.42L82.73 11.42L82.73 11.42Q82.13 11.42 81.79 11.73L81.79 11.73L81.79 11.73Q81.44 12.05 81.33 12.78L81.33 12.78L83.96 12.78L83.96 12.78Q83.96 12.06 83.65 11.74L83.65 11.74L83.65 11.74Q83.34 11.42 82.73 11.42Z"></path></g><!----><!----></svg>